<?xml version="1.0" standalone="no"?>
<!DOCTYPE svg PUBLIC "-//W3C//DTD SVG 20010904//EN"
 "http://www.w3.org/TR/2001/REC-SVG-20010904/DTD/svg10.dtd">
<svg version="1.0" xmlns="http://www.w3.org/2000/svg"
 width="260.000000pt" height="260.000000pt" viewBox="0 0 260.000000 260.000000"
 preserveAspectRatio="xMidYMid meet">
<metadata>
Created by potrace 1.14, written by Peter Selinger 2001-2017
</metadata>
<g transform="translate(0.000000,260.000000) scale(0.100000,-0.100000)"
fill="#000000" stroke="none">
<path d="M0 1300 l0 -1300 1300 0 1300 0 0 1300 0 1300 -1300 0 -1300 0 0
-1300z m1380 930 c1 -63 7 -203 14 -310 7 -107 11 -197 9 -199 -6 -8 -155 43
-159 54 -3 6 5 58 17 115 11 58 28 139 36 180 8 41 18 93 23 115 4 22 15 76
24 120 9 44 16 82 17 85 1 3 5 -6 9 -20 4 -14 9 -77 10 -140z m-480 -207 c112
-169 180 -279 176 -288 -3 -8 -14 -15 -24 -15 -10 0 -27 -7 -38 -15 -32 -24
-43 -17 -70 43 -47 106 -52 117 -78 179 -14 35 -37 86 -50 115 -76 166 -120
278 -102 257 2 -2 85 -127 186 -276z m972 -64 c-27 -46 -64 -111 -82 -144 -91
-169 -152 -275 -159 -275 -4 0 -29 23 -55 50 l-49 51 59 62 c33 34 119 126
193 204 74 79 136 141 138 139 2 -2 -18 -41 -45 -87z m-1556 -203 c31 -15 382
-154 448 -177 21 -8 41 -20 43 -27 6 -15 -42 -92 -57 -92 -6 0 -29 12 -53 27
-107 67 -413 266 -421 274 -15 14 7 11 40 -5z m904 -84 c0 -26 -30 -111 -41
-118 -6 -3 -17 0 -25 7 -32 26 6 129 46 129 13 0 20 -7 20 -18z m95 -30 c-15
-65 -63 -128 -82 -109 -10 10 24 139 39 148 7 4 20 3 31 -3 14 -7 17 -16 12
-36z m-200 1 c-8 -46 -26 -85 -40 -87 -15 -2 -18 93 -4 110 6 8 20 14 31 14
18 0 19 -4 13 -37z m-91 -22 c-2 -36 -30 -85 -44 -76 -14 9 -12 40 5 81 18 43
41 40 39 -5z m384 17 c18 -18 15 -40 -15 -86 -27 -42 -52 -52 -82 -33 -11 7
-8 16 13 47 14 21 26 46 26 55 0 30 35 40 58 17z m-468 -94 c0 -32 -4 -44 -12
-42 -17 6 -22 56 -7 74 17 21 19 18 19 -32z m570 16 c0 -5 -17 -27 -39 -50
-26 -27 -44 -38 -55 -34 -24 9 -20 34 11 66 26 27 83 40 83 18z m750 5 c0 -3
-21 -15 -47 -28 -27 -13 -137 -69 -245 -125 -108 -56 -201 -102 -207 -102 -13
0 -78 127 -70 135 6 5 203 49 314 70 104 19 229 46 234 51 6 6 21 5 21 -1z
m-1377 -46 c8 -29 -2 -49 -23 -49 -26 0 -32 14 -19 44 15 31 35 34 42 5z m674
-29 c4 -36 -40 -82 -74 -78 -38 4 -38 19 3 67 40 46 68 50 71 11z m-230 -28
c62 -32 118 -81 128 -112 3 -10 -3 -36 -14 -58 -29 -57 -11 -73 105 -93 61
-10 74 -16 110 -54 25 -26 45 -58 51 -84 10 -36 8 -45 -11 -73 -14 -21 -33
-35 -56 -40 -46 -10 -166 -12 -180 -3 -17 10 -70 126 -70 151 0 12 7 27 15 34
23 19 18 38 -20 71 -23 20 -37 43 -41 67 -15 82 -75 107 -246 100 -135 -5
-213 -33 -248 -90 -27 -44 -27 -72 0 -65 26 7 26 -8 0 -75 -11 -29 -20 -57
-20 -61 0 -5 17 -6 38 -2 39 6 92 -7 92 -24 0 -4 -13 -11 -30 -14 -40 -9 -38
-23 7 -44 43 -21 55 -43 19 -36 -30 6 -96 -24 -96 -44 0 -15 9 -15 70 3 21 6
17 -1 -22 -39 -50 -49 -57 -67 -34 -86 11 -9 35 -8 103 3 48 8 122 15 163 14
41 -1 95 4 120 10 39 11 52 10 99 -6 30 -10 56 -23 58 -28 1 -5 -25 -18 -60
-28 -80 -26 -183 -78 -220 -113 -16 -16 -38 -46 -49 -68 -11 -22 -37 -54 -57
-72 -37 -33 -88 -60 -97 -51 -2 3 8 42 22 86 34 104 26 132 -47 164 -27 11
-63 36 -79 55 -27 31 -30 40 -30 105 0 51 -7 93 -26 147 -50 143 -32 228 72
338 37 40 54 66 54 85 0 23 7 29 48 42 66 21 102 25 219 21 89 -3 108 -7 160
-33z m281 -46 c5 -22 -60 -86 -87 -86 -42 0 -21 54 34 89 34 22 49 21 53 -3z
m52 -72 c0 -31 -73 -75 -92 -56 -16 16 -3 39 33 61 33 20 59 18 59 -5z m-532
-66 c18 -9 54 -20 80 -23 112 -15 118 -24 32 -46 l-60 -16 -30 29 c-34 32 -56
35 -89 12 -16 -12 -22 -23 -18 -40 5 -29 -6 -30 -49 -3 -42 26 -53 62 -28 90
16 18 28 20 74 17 30 -2 70 -11 88 -20z m569 -5 c6 -16 -55 -56 -73 -49 -12 5
-13 10 -4 26 18 33 69 48 77 23z m28 -63 c8 -13 -13 -50 -28 -50 -7 0 -18 5
-25 12 -9 9 -8 16 5 30 18 20 38 23 48 8z m160 -50 c11 -5 76 -29 145 -55 192
-72 197 -69 -82 -49 l-97 7 -15 48 c-9 26 -16 53 -16 59 0 11 24 8 65 -10z
m-1176 -36 c7 -26 8 -50 4 -54 -4 -3 -51 -15 -103 -25 -52 -10 -120 -24 -150
-31 -104 -26 -95 -17 55 62 61 31 124 66 140 76 17 10 33 18 36 18 4 0 12 -21
18 -46z m1043 14 c7 -19 -2 -38 -17 -38 -21 0 -28 19 -15 35 15 18 26 19 32 3z
m28 -78 c0 -19 -20 -27 -33 -13 -8 7 11 33 24 33 5 0 9 -9 9 -20z m-80 -152
c0 -7 -16 -23 -35 -35 -60 -39 -68 -68 -56 -198 15 -167 52 -235 126 -235 44
0 46 19 10 90 -35 68 -85 197 -85 217 0 15 2 15 14 3 33 -33 176 -274 176
-296 0 -12 -10 -34 -22 -49 -20 -21 -37 -27 -111 -37 -92 -11 -118 -26 -159
-88 -8 -14 -18 -23 -21 -20 -3 3 1 50 10 105 17 114 13 284 -8 330 -7 17 -28
48 -45 70 -39 48 -50 85 -34 114 10 19 17 21 73 15 44 -4 74 -1 102 10 50 18
65 19 65 4z"/>
</g>
</svg>
